HIERARCHY
ROOT SpineBase
{
  OFFSET 0.000000 0.000000 0.000000
  CHANNELS 6 Xposition Yposition Zposition Zrotation Xrotation Yrotation
  JOINT SpineMid
  {
    OFFSET 0.000000 29.875529 0.000000
    CHANNELS 3 Zrotation Xrotation Yrotation
    JOINT SpineShoulder
    {
      OFFSET 0.202981 22.322719 -0.622169
      CHANNELS 3 Zrotation Xrotation Yrotation
      JOINT Neck
      {
        OFFSET 0.055284 7.408826 -0.504868
        CHANNELS 3 Zrotation Xrotation Yrotation
        JOINT Head
        {
          OFFSET -1.010213 14.564853 -0.478540
          CHANNELS 3 Zrotation Xrotation Yrotation
          End Site
          {
            OFFSET 0 0 0
          }
        }
      }
      JOINT ShoulderLeft
      {
        OFFSET -17.332664 -3.481166 3.238455
        CHANNELS 3 Zrotation Xrotation Yrotation
        JOINT ElbowLeft
        {
          OFFSET -3.984685 -23.605777 1.136242
          CHANNELS 3 Zrotation Xrotation Yrotation
          JOINT WristLeft
          {
            OFFSET -3.876305 -20.454358 -2.815425
            CHANNELS 3 Zrotation Xrotation Yrotation
            JOINT HandLeft
            {
              OFFSET -1.608059 -6.187295 0.409691
              CHANNELS 3 Zrotation Xrotation Yrotation
              JOINT HandTipLeft
              {
                OFFSET -0.705441 -5.107355 -1.263852
                CHANNELS 3 Zrotation Xrotation Yrotation
                End Site
                {
                  OFFSET 0 0 0
                }
              }
              JOINT ThumbLeft
              {
                OFFSET 1.243377 0.084959 -3.279482
                CHANNELS 3 Zrotation Xrotation Yrotation
                End Site
                {
                  OFFSET 0 0 0
                }
              }
            }
          }
        }
      }
      JOINT ShoulderRight
      {
        OFFSET 15.768656 -3.030658 -3.968226
        CHANNELS 3 Zrotation Xrotation Yrotation
        JOINT ElbowRight
        {
          OFFSET 3.169121 -24.072309 0.114491
          CHANNELS 3 Zrotation Xrotation Yrotation
          JOINT WristRight
          {
            OFFSET -1.139395 -21.307714 -6.801087
            CHANNELS 3 Zrotation Xrotation Yrotation
            JOINT HandRight
            {
              OFFSET -1.675938 -4.724241 -1.856585
              CHANNELS 3 Zrotation Xrotation Yrotation
              JOINT HandTipRight
              {
                OFFSET 0.795683 -4.530442 -2.353065
                CHANNELS 3 Zrotation Xrotation Yrotation
                End Site
                {
                  OFFSET 0 0 0
                }
              }
              JOINT ThumbRight
              {
                OFFSET -3.107937 1.583037 0.520085
                CHANNELS 3 Zrotation Xrotation Yrotation
                End Site
                {
                  OFFSET 0 0 0
                }
              }
            }
          }
        }
      }
    }
  }
  JOINT HipLeft
  {
    OFFSET -6.152828 0.422747 -1.873774
    CHANNELS 3 Zrotation Xrotation Yrotation
    JOINT KneeLeft
    {
      OFFSET -5.153824 -28.386015 -1.847137
      CHANNELS 3 Zrotation Xrotation Yrotation
      JOINT AnkleLeft
      {
        OFFSET -0.217977 -30.327366 5.912045
        CHANNELS 3 Zrotation Xrotation Yrotation
        JOINT FootLeft
        {
          OFFSET -1.193143 -3.232257 -9.798685
          CHANNELS 3 Zrotation Xrotation Yrotation
          End Site
          {
            OFFSET 0 0 0
          }
        }
      }
    }
  }
  JOINT HipRight
  {
    OFFSET 5.474435 1.064342 -5.044946
    CHANNELS 3 Zrotation Xrotation Yrotation
    JOINT KneeRight
    {
      OFFSET 6.166889 -25.888416 1.381506
      CHANNELS 3 Zrotation Xrotation Yrotation
      JOINT AnkleRight
      {
        OFFSET 2.290715 -32.447835 7.491865
        CHANNELS 3 Zrotation Xrotation Yrotation
        JOINT FootRight
        {
          OFFSET 0.551591 -6.438684 -5.337763
          CHANNELS 3 Zrotation Xrotation Yrotation
          End Site
          {
            OFFSET 0 0 0
          }
        }
      }
    }
  }
}
MOTION
Frames: 13
Frame Time: 0.033333
41.566972 67.985397 400.079095 -0.000000 0.000000 15.255579 0.000000 0.000000 -15.255579 -0.000000 0.000000 0.000000 -0.000000 0.000000 0.000000 0.000000 0.000000 0.000000 -0.000000 0.000000 0.000000 -0.000000 0.000000 0.000000 -0.000000 0.000000 0.000000 -0.000000 0.000000 0.000000 0.000000 0.000000 0.000000 0.000000 0.000000 0.000000 -0.000000 0.000000 0.000000 -0.000000 0.000000 0.000000 -0.000000 0.000000 0.000000 -0.000000 0.000000 0.000000 0.000000 0.000000 0.000000 0.000000 0.000000 0.000000 0.000000 0.000000 -15.255579 -0.000000 0.000000 0.000000 -0.000000 0.000000 0.000000 0.000000 0.000000 0.000000 0.000000 0.000000 -15.255579 -0.000000 0.000000 0.000000 -0.000000 0.000000 0.000000 0.000000 0.000000 0.000000
41.444561 67.877184 400.154372 0.097276 -0.050358 14.583842 -0.081462 0.073230 -14.583747 -0.000000 0.000000 0.000000 -0.000000 0.000000 0.000000 0.000000 0.000000 0.000000 -0.915579 -1.377589 0.177129 1.152074 -1.093404 0.236223 0.177194 8.050172 -1.902548 -1.263403 -8.980929 2.037741 0.000000 0.000000 0.000000 0.000000 0.000000 0.000000 2.324445 1.194548 0.143713 -1.228073 -1.137741 -0.523693 6.101062 -0.896994 -2.168511 -8.787779 -6.341699 2.302515 0.000000 0.000000 0.000000 0.000000 0.000000 0.000000 -0.280452 1.098333 -14.723241 -0.389272 0.143751 -0.032411 1.372868 -8.120272 1.542482 0.000000 0.000000 0.000000 -0.081462 0.073230 -14.583747 -0.000000 0.000000 0.000000 -0.000000 0.000000 0.000000 0.000000 0.000000 0.000000
41.219604 67.781139 400.144794 0.223467 -0.045858 14.039544 -0.205668 0.098699 -14.039278 -0.000000 0.000000 0.000000 -0.626482 1.115700 0.062947 0.000000 0.000000 0.000000 -1.459266 -2.298488 0.287623 2.224940 -1.552512 0.273237 0.605831 13.930087 -3.381163 -2.271828 -15.814410 3.375515 0.000000 0.000000 0.000000 0.000000 0.000000 0.000000 4.376010 2.302444 0.234841 -2.260347 -2.153370 -1.014307 10.632285 -1.764366 -3.702868 -14.990627 -11.389690 3.976363 0.000000 0.000000 0.000000 0.000000 0.000000 0.000000 -0.532663 1.829086 -14.275735 -0.706337 0.465973 -0.058892 2.589008 -14.799762 2.878226 0.000000 0.000000 0.000000 -0.205668 0.098699 -14.039278 -0.000000 0.000000 0.000000 -0.000000 0.000000 0.000000 0.000000 0.000000 0.000000
40.892100 67.697264 400.050362 0.378600 0.013372 13.622087 0.527679 -0.225633 -13.593641 0.186035 -0.049899 0.051317 -2.044080 1.698496 0.016398 0.000000 0.000000 0.000000 -2.767011 -2.625085 0.273851 3.210474 -1.378080 0.121018 1.187100 17.996526 -4.550319 -3.276282 -21.127671 4.280465 0.000000 0.000000 0.000000 0.000000 0.000000 0.000000 5.010579 3.435293 0.195108 -3.083194 -3.035836 -1.464880 13.717552 -2.488325 -4.691446 -19.082108 -15.205608 5.103673 0.000000 0.000000 0.000000 0.000000 0.000000 0.000000 -0.743929 2.199454 -13.916389 -0.962007 0.973972 -0.076891 3.559405 -19.986870 3.958840 0.000000 0.000000 0.000000 0.240658 -0.471161 -13.673474 0.066030 0.250897 0.224279 -0.801997 -0.704655 -0.235904 0.000000 0.000000 0.000000
40.462048 67.625559 399.871076 0.562743 0.127282 13.330694 0.657375 -0.276499 -13.293169 0.225176 -0.061628 0.067640 -2.676751 1.997061 0.015605 0.000000 0.000000 0.000000 -2.933960 -2.705094 0.261216 4.107947 -0.580583 -0.219960 1.921774 20.524821 -5.457419 -4.442136 -25.341541 4.868884 0.000000 0.000000 0.000000 0.000000 0.000000 0.000000 6.107453 4.252955 0.200847 -3.688576 -3.777476 -1.869689 15.551070 -3.025359 -5.239061 -21.466956 -17.902972 5.756533 0.000000 0.000000 0.000000 0.000000 0.000000 0.000000 -0.905318 2.214381 -13.646676 -1.163928 1.675132 -0.086325 4.204997 -23.732449 4.733693 0.000000 0.000000 0.000000 0.262960 -0.604730 -13.371095 0.290259 0.000631 0.302747 -1.135459 -0.838058 -0.459717 0.000000 0.000000 0.000000
39.929450 67.566023 399.606934 0.776007 0.295904 13.164490 0.763070 -0.317324 -13.118459 0.252781 -0.070838 0.083618 -3.285453 2.162275 0.008132 0.000000 0.000000 0.000000 -2.722917 -2.387324 0.200686 4.919437 0.819955 -0.758019 2.901501 21.745652 -6.117777 -5.930923 -28.739744 5.175116 0.000000 0.000000 0.000000 0.000000 0.000000 0.000000 6.898477 4.896480 0.202887 -4.072929 -4.373469 -2.224389 16.309934 -3.371294 -5.431914 -22.428992 -19.588525 5.985327 0.000000 0.000000 0.000000 0.000000 0.000000 0.000000 -1.011548 1.876089 -13.465954 -1.316750 2.577357 -0.089452 4.462090 -26.109808 5.155439 0.000000 0.000000 0.000000 0.253920 -0.729216 -13.180759 0.615812 -0.416001 0.387272 -1.502071 -0.925717 -0.755575 0.000000 0.000000 0.000000
39.125628 67.496340 399.158748 1.034202 0.605721 13.198773 0.862768 -0.351008 -13.145131 0.264672 -0.070723 0.100511 -3.953389 2.174878 -0.008440 0.000000 0.000000 0.000000 -1.528576 -1.310367 0.043884 5.644712 3.987272 -1.922671 3.939125 21.120803 -6.263456 -8.251096 -33.708366 5.467094 0.000000 0.000000 0.000000 0.000000 0.000000 0.000000 8.001924 5.618563 0.214691 -4.290897 -5.133035 -2.744333 15.928963 -3.705980 -5.193511 -20.869905 -19.792374 5.360869 0.000000 0.000000 0.000000 0.000000 0.000000 0.000000 -0.676618 0.586893 -13.410057 -2.181853 4.541177 -0.159997 6.228856 -35.305671 6.508987 0.000000 0.000000 0.000000 0.335614 -0.924718 -13.159398 1.041108 -1.206030 0.494428 -2.012926 -0.736364 -1.171650 0.000000 0.000000 0.000000
38.296726 67.450041 398.640487 1.343422 0.935012 13.476988 0.914260 -0.379235 -13.417494 0.252514 -0.070982 0.115886 -4.614727 2.067593 -0.037053 0.000000 0.000000 0.000000 -0.278244 0.053373 -0.191066 6.131004 6.216133 -2.901822 7.637469 22.353210 -7.262630 -12.907695 -37.771080 4.714289 0.000000 0.000000 0.000000 0.000000 0.000000 0.000000 8.405285 6.009645 0.239238 -4.195314 -5.591033 -3.083731 14.241847 -3.971915 -4.448862 -19.151051 -20.771479 4.415266 0.000000 0.000000 0.000000 0.000000 0.000000 0.000000 -0.499498 -0.954489 -13.532490 -2.596512 6.568707 -0.203750 4.951170 -32.461880 5.826402 0.000000 0.000000 0.000000 0.275394 -1.116180 -13.389988 1.531988 -2.034367 0.612936 -2.389906 -0.606519 -1.685534 0.000000 0.000000 0.000000
37.535259 67.428996 398.147442 1.671892 1.228466 13.705627 0.939720 -0.383092 -13.642666 0.250061 -0.066342 0.131247 -5.075268 1.893537 -0.071178 0.000000 0.000000 0.000000 0.904092 1.414312 -0.459366 6.615429 8.591230 -3.973489 12.604782 22.952419 -7.885862 -17.572158 -40.185975 3.393438 0.000000 0.000000 0.000000 0.000000 0.000000 0.000000 8.215094 6.168876 0.275407 -3.929781 -6.118953 -3.228208 12.162591 -2.390930 -4.528394 -17.254483 -19.307719 4.288423 0.000000 0.000000 0.000000 0.000000 0.000000 0.000000 -0.715868 -2.056744 -13.631477 -1.991045 7.562980 -0.177494 2.942070 -27.540436 4.088628 0.000000 0.000000 0.000000 0.070549 -1.164818 -13.568766 2.175332 -2.887162 0.740778 -1.787295 -5.410980 -3.531502 0.000000 0.000000 0.000000
36.874090 67.424272 397.780352 1.995395 1.500918 13.620123 0.928163 -0.356285 -13.557583 0.237667 -0.061036 0.143723 -5.337310 1.448002 -0.123257 0.000000 0.000000 0.000000 1.893361 2.671453 -0.740894 7.187656 10.844728 -5.033200 15.970664 19.828076 -5.932134 -21.276852 -35.944682 1.222569 0.000000 0.000000 0.000000 0.000000 0.000000 0.000000 6.907019 5.548961 0.326620 -3.421818 -5.594407 -3.044277 10.066742 -1.819104 -3.999732 -14.659291 -17.950152 3.503536 0.000000 0.000000 0.000000 0.000000 0.000000 0.000000 -1.147609 -2.930693 -13.434678 -1.031373 7.948543 -0.159762 1.314436 -23.703240 2.614204 0.000000 0.000000 0.000000 -0.265258 -1.144512 -13.444208 2.911588 -3.555002 0.878171 -2.407937 -4.664248 -3.715211 0.000000 0.000000 0.000000
36.326296 67.423772 397.479461 2.268514 1.631267 13.612844 0.862572 -0.369032 -13.550464 0.207311 -0.084347 0.151183 -5.464954 1.284934 -0.148059 0.000000 0.000000 0.000000 2.285460 3.679035 -0.969845 8.088262 12.685553 -5.902242 19.526825 19.209483 -5.013136 -23.497144 -35.012937 0.030815 0.000000 0.000000 0.000000 0.000000 0.000000 0.000000 4.896940 4.892580 0.347058 -2.429464 -4.542179 -2.735429 6.043370 -2.054340 -2.370178 -10.335482 -16.147403 1.706722 0.000000 0.000000 0.000000 0.000000 0.000000 0.000000 -1.628332 -3.442265 -13.346712 -0.042758 8.450141 -0.159549 -0.379557 -18.413869 1.692802 0.000000 0.000000 0.000000 -0.655861 -1.022595 -13.419709 3.665170 -4.036141 1.015970 -3.743414 1.121226 -2.635178 0.000000 0.000000 0.000000
35.811559 67.385621 397.205867 2.476919 1.710481 13.555575 0.805541 -0.386134 -13.493184 0.182070 -0.102185 0.156405 -5.556873 0.773374 -0.200998 0.000000 0.000000 0.000000 2.587412 4.345861 -1.123839 9.154715 14.879075 -6.938931 18.437734 17.561901 -3.614910 -23.905189 -30.013917 -1.326187 0.000000 0.000000 0.000000 0.000000 0.000000 0.000000 2.536164 3.920309 0.323141 -1.516492 -2.943877 -2.261503 2.493745 -0.725245 -1.712694 -6.287209 -15.338822 0.932990 0.000000 0.000000 0.000000 0.000000 0.000000 0.000000 -2.002184 -3.917604 -13.210597 0.893331 9.003494 -0.175892 -1.650974 -15.904163 1.301869 0.000000 0.000000 0.000000 -0.835917 -1.048157 -13.363207 4.069528 -4.246338 1.126419 -7.265320 14.550083 1.303859 0.000000 0.000000 0.000000
35.460659 67.331536 397.054201 2.731434 1.752086 13.304282 0.768665 -0.373683 -13.241140 0.154056 -0.104901 0.163201 -5.557882 0.131914 -0.262583 0.000000 0.000000 0.000000 2.347425 4.777793 -1.243096 9.844686 15.225086 -7.163219 15.270058 16.875406 -3.503251 -20.504620 -25.139806 -1.115359 0.000000 0.000000 0.000000 0.000000 0.000000 0.000000 0.349845 3.283789 0.286872 -1.379459 -1.549468 -1.682996 0.343044 -0.568799 -1.068969 -4.067702 -14.988305 0.437707 0.000000 0.000000 0.000000 0.000000 0.000000 0.000000 -2.440908 -4.178807 -12.908195 1.754643 9.411099 -0.193743 -2.344020 -16.409450 1.084195 0.000000 0.000000 0.000000 -1.181567 -1.060726 -13.136348 4.485658 -4.221283 1.226778 -8.534888 18.845043 2.490245 0.000000 0.000000 0.000000
